<svg width="48" height="48" viewBox="0 0 48 48" fill="none" xmlns="http://www.w3.org/2000/svg">
<path d="M37.6388 2.47748L27.9485 12.1677V33.4862L37.6388 24.765V2.47748ZM2.75391 12.1677V40.5601C2.75391 41.0446 3.23842 41.5291 3.72293 41.5291C3.91673 41.5291 4.01364 41.4322 4.20744 41.4322C6.82381 40.1725 10.603 39.3004 13.4132 39.3004C17.1924 39.3004 21.2623 40.0756 24.0724 42.2075V12.1677C21.2623 10.0359 17.1924 9.26064 13.4132 9.26064C9.63397 9.26064 5.56407 10.0359 2.75391 12.1677ZM45.3909 38.3314V12.1677C44.2281 11.2956 42.9684 10.7142 41.5149 10.2297V36.3933C39.383 35.715 37.0573 35.4243 34.7317 35.4243C31.437 35.4243 26.6888 36.684 24.0724 38.3314V42.2075C26.6888 40.5601 31.437 39.3004 34.7317 39.3004C37.9295 39.3004 41.2241 39.8818 43.9374 41.3353C44.1312 41.4322 44.2281 41.4322 44.4219 41.4322C44.9064 41.4322 45.3909 40.9477 45.3909 40.4632V38.3314Z" fill="#699FEF"/>
</svg>
