<svg width="48" height="51" viewBox="0 0 48 51" fill="none" xmlns="http://www.w3.org/2000/svg">
<path d="M12.9005 38.73L15.9004 34.4085L6.24323 25.5028L15.9004 16.597L12.9005 12.2755L0.901083 23.342C0.619926 23.6012 0.392951 23.93 0.23697 24.304C0.0809896 24.6781 0 25.0878 0 25.5028C0 25.9178 0.0809896 26.3275 0.23697 26.7015C0.392951 27.0755 0.619926 27.4043 0.901083 27.6635L12.9005 38.73ZM35.0995 12.2755L32.0996 16.597L41.7568 25.5028L32.0996 34.4085L35.0995 38.73L47.0989 27.6635C47.3801 27.4043 47.607 27.0755 47.763 26.7015C47.919 26.3275 48 25.9178 48 25.5028C48 25.0878 47.919 24.6781 47.763 24.304C47.607 23.93 47.3801 23.6012 47.0989 23.342L35.0995 12.2755ZM31.1421 1.20072L21.5425 51L16.8555 49.7993L26.4551 0L31.1421 1.20072Z" fill="#699FEF"/>
</svg>
