<svg width="70" height="70" viewBox="0 0 47 47" fill="none" xmlns="http://www.w3.org/2000/svg">
<path d="M37.2083 9.79167H35.25V7.83333C35.25 7.31395 35.0437 6.81584 34.6764 6.44858C34.3092 6.08132 33.8111 5.875 33.2917 5.875H9.79167C9.27228 5.875 8.77418 6.08132 8.40692 6.44858C8.03966 6.81584 7.83333 7.31395 7.83333 7.83333V25.4583C7.83333 27.5359 8.65863 29.5283 10.1277 30.9973C11.5967 32.4664 13.5891 33.2917 15.6667 33.2917H27.4167C31.0553 33.2917 34.0965 30.787 34.9719 27.4167H37.2083C38.7665 27.4167 40.2608 26.7977 41.3626 25.6959C42.4644 24.5941 43.0833 23.0998 43.0833 21.5417V15.6667C43.0833 14.1085 42.4644 12.6142 41.3626 11.5124C40.2608 10.4106 38.7665 9.79167 37.2083 9.79167ZM39.1667 21.5417C39.1667 22.0611 38.9603 22.5592 38.5931 22.9264C38.2258 23.2937 37.7277 23.5 37.2083 23.5H35.25V13.7083H37.2083C37.7277 13.7083 38.2258 13.9147 38.5931 14.2819C38.9603 14.6492 39.1667 15.1473 39.1667 15.6667V21.5417ZM35.25 37.2083H5.875C5.875 40.4474 8.51092 43.0833 11.75 43.0833H33.2917C36.5308 43.0833 39.1667 40.4474 39.1667 37.2083H35.25Z" fill="#699FEF"/>
</svg>
