<svg width="39" height="39" viewBox="0 0 39 39" fill="none" xmlns="http://www.w3.org/2000/svg">
<path d="M2.97887 30.0952C3.79318 32.606 6.26816 34.2083 8.90902 34.2083H9.01269C9.25497 35.3907 9.89805 36.4533 10.8333 37.2165C11.7685 37.9796 12.9384 38.3965 14.1455 38.3967C15.0069 38.3967 15.8118 38.1799 16.5243 37.8067C16.8217 37.6436 17.0691 37.4028 17.2401 37.1099C17.4111 36.8171 17.4993 36.4832 17.4951 36.1441V2.63292C17.4989 2.20107 17.3539 1.78108 17.0844 1.44362C16.8149 1.10615 16.4374 0.871796 16.0154 0.779982C15.0697 0.596301 14.0899 0.729465 13.2275 1.15886C11.8251 1.82992 11.0032 3.32848 11.0032 4.88736V4.99103C9.9537 4.77682 8.86372 4.88963 7.8803 5.31425C6.89688 5.73887 6.06734 6.45486 5.50356 7.36567C4.93977 8.27647 4.66888 9.33826 4.7274 10.4078C4.78592 11.4774 5.17105 12.5033 5.83084 13.3472C4.35317 13.5787 3.00691 14.3307 2.03494 15.4675C1.06298 16.6044 0.52933 18.0512 0.530275 19.5469C0.530275 21.7674 1.682 23.7146 3.41995 24.8474C2.60941 26.3008 2.34363 28.1386 2.97887 30.0952ZM32.9293 13.3472C33.5891 12.5033 33.9743 11.4774 34.0328 10.4078C34.0913 9.33826 33.8204 8.27647 33.2566 7.36567C32.6929 6.45486 31.8633 5.73887 30.8799 5.31425C29.8965 4.88963 28.8065 4.77682 27.757 4.99103V4.88736C27.757 3.33036 26.9332 1.82992 25.5308 1.15886C24.6691 0.729338 23.6898 0.596157 22.7448 0.779982C22.323 0.87212 21.9457 1.10656 21.6762 1.44396C21.4068 1.78135 21.2616 2.20116 21.2651 2.63292V36.1423C21.2651 36.8303 21.627 37.4844 22.2377 37.8048C22.9503 38.1799 23.7533 38.3967 24.6147 38.3967C25.822 38.3964 26.9922 37.9793 27.9274 37.2158C28.8627 36.4522 29.5056 35.3892 29.7475 34.2064H29.8531C32.492 34.2064 34.9689 32.6041 35.7832 30.0933C36.4184 28.1367 36.1527 26.2989 35.3421 24.8456C36.2275 24.2735 36.9555 23.489 37.4599 22.5635C37.9643 21.638 38.229 20.6009 38.2299 19.5469C38.2309 18.0512 37.6972 16.6044 36.7252 15.4675C35.7533 14.3307 34.407 13.5787 32.9293 13.3472Z" fill="#699FEF"/>
</svg>
