<svg width="15" height="15" viewBox="0 0 15 15" fill="none" xmlns="http://www.w3.org/2000/svg">
<path d="M13.3912 6.93436L2.76622 1.93436C2.65923 1.88401 2.54016 1.86505 2.42282 1.87968C2.30549 1.8943 2.19471 1.94191 2.10335 2.01697C2.01199 2.09204 1.9438 2.19148 1.90669 2.30375C1.86959 2.41602 1.86509 2.53651 1.89372 2.65123L2.65122 5.68186L7.49997 7.49998L2.65122 9.31811L1.89372 12.3487C1.86455 12.4635 1.86867 12.5843 1.90561 12.6968C1.94254 12.8094 2.01076 12.9091 2.10228 12.9843C2.19381 13.0595 2.30485 13.1071 2.42243 13.1215C2.54001 13.1359 2.65926 13.1165 2.76622 13.0656L13.3912 8.06561C13.4986 8.01513 13.5894 7.93514 13.653 7.83498C13.7166 7.73482 13.7503 7.61863 13.7503 7.49998C13.7503 7.38134 13.7166 7.26514 13.653 7.16498C13.5894 7.06482 13.4986 6.98483 13.3912 6.93436Z" fill="#E1E7F1"/>
</svg>
