<svg width="29" height="38" viewBox="0 0 29 38" fill="none" xmlns="http://www.w3.org/2000/svg">
<g clip-path="url(#clip0_310_950)">
<path d="M13.4012 37.0519C2.84144 21.7433 0.881348 20.1722 0.881348 14.546C0.881348 6.83947 7.12872 0.592102 14.8353 0.592102C22.5419 0.592102 28.7892 6.83947 28.7892 14.546C28.7892 20.1722 26.8291 21.7433 16.2693 37.0519C15.5764 38.0529 14.0941 38.0528 13.4012 37.0519ZM14.8353 20.3602C18.0464 20.3602 20.6494 17.7571 20.6494 14.546C20.6494 11.335 18.0464 8.7319 14.8353 8.7319C11.6242 8.7319 9.02115 11.335 9.02115 14.546C9.02115 17.7571 11.6242 20.3602 14.8353 20.3602Z" fill="#699FEF"/>
</g>
<defs>
<clipPath id="clip0_310_950">
<rect width="27.9079" height="37.2105" fill="white" transform="translate(0.881348 0.592102)"/>
</clipPath>
</defs>
</svg>
