<svg width="38" height="39" viewBox="0 0 38 39" fill="none" xmlns="http://www.w3.org/2000/svg">
<g clip-path="url(#clip0_310_963)">
<path d="M19.1712 0.865265C8.89327 0.865265 0.565918 9.2205 0.565918 19.5328C0.565918 29.8451 8.89327 38.2004 19.1712 38.2004C29.4491 38.2004 37.7764 29.8451 37.7764 19.5328C37.7764 9.2205 29.4491 0.865265 19.1712 0.865265ZM8.96829 17.0789C9.21586 13.91 11.384 11.7045 13.1695 11.7045C14.955 11.7045 17.1231 13.91 17.3707 17.0789C17.4232 17.7263 16.5604 17.9747 16.2529 17.4177L15.5401 16.138C14.9625 15.1068 14.0997 14.5121 13.177 14.5121C12.2542 14.5121 11.3915 15.1068 10.8138 16.138L10.1011 17.4177C9.77852 17.9747 8.91578 17.7188 8.96829 17.0789ZM27.7836 26.3224C25.6455 28.8967 22.5096 30.372 19.1712 30.372C15.8327 30.372 12.6968 28.8967 10.5587 26.3224C9.54596 25.0954 11.384 23.5599 12.4043 24.7793C14.0847 26.8041 16.5454 27.9558 19.1712 27.9558C21.7969 27.9558 24.2576 26.7966 25.9381 24.7793C26.9584 23.5599 28.7964 25.103 27.7836 26.3224ZM28.2487 17.4177L27.536 16.138C26.9584 15.1068 26.0956 14.5121 25.1729 14.5121C24.2501 14.5121 23.3874 15.1068 22.8097 16.138L22.097 17.4177C21.7894 17.9672 20.9267 17.7188 20.9792 17.0789C21.2268 13.91 23.3949 11.7045 25.1804 11.7045C26.9659 11.7045 29.134 13.91 29.3816 17.0789C29.4266 17.7263 28.5563 17.9747 28.2487 17.4177Z" fill="#699FEF"/>
</g>
<defs>
<clipPath id="clip0_310_963">
<rect width="37.2105" height="38.5395" fill="white" transform="translate(0.565918 0.263092)"/>
</clipPath>
</defs>
</svg>
