<svg width="70" height="70" viewBox="0 0 50 50" fill="none" xmlns="http://www.w3.org/2000/svg">
<path d="M25 4.16669C13.5125 4.16669 4.16663 13.5125 4.16663 25C4.16663 36.4875 13.5125 45.8334 25 45.8334C36.4875 45.8334 45.8333 36.4875 45.8333 25C45.8333 13.5125 36.4875 4.16669 25 4.16669ZM25 41.6667C15.8104 41.6667 8.33329 34.1896 8.33329 25C8.33329 15.8104 15.8104 8.33335 25 8.33335C34.1895 8.33335 41.6666 15.8104 41.6666 25C41.6666 34.1896 34.1895 41.6667 25 41.6667Z" fill="#699FEF"/>
<path d="M27.0833 14.5833H22.9166V25.8625L29.777 32.7229L32.7229 29.7771L27.0833 24.1375V14.5833Z" fill="#699FEF"/>
</svg>
