<svg width="22" height="22" viewBox="0 0 17 17" fill="none" xmlns="http://www.w3.org/2000/svg">
<path d="M8.49275 1.41663C4.58275 1.41663 1.4165 4.58996 1.4165 8.49996C1.4165 12.41 4.58275 15.5833 8.49275 15.5833C12.4098 15.5833 15.5832 12.41 15.5832 8.49996C15.5832 4.58996 12.4098 1.41663 8.49275 1.41663ZM8.49984 14.1666C5.369 14.1666 2.83317 11.6308 2.83317 8.49996C2.83317 5.36913 5.369 2.83329 8.49984 2.83329C11.6307 2.83329 14.1665 5.36913 14.1665 8.49996C14.1665 11.6308 11.6307 14.1666 8.49984 14.1666Z" fill="#E1E7F1"/>
<path d="M8.854 4.95837H7.7915V9.20837L11.5103 11.4396L12.0415 10.5684L8.854 8.67712V4.95837Z" fill="#E1E7F1"/>
</svg>
